<svg id="Layer_1" data-name="Layer 1" xmlns="http://www.w3.org/2000/svg" viewBox="0 0 573.03 214.9"><title>matru pitru chhaya logo</title><text transform="translate(179.81 115.41)" style="font-size:98.70834350585938px;fill:#fec629;font-family:BowlbyOneSC-Regular, Bowlby One SC">Krishi</text><text transform="translate(180.81 184.08)" style="font-size:72.04255676269531px;fill:#0b5b2e;font-family:BowlbyOneSC-Regular, Bowlby One SC">Naturals</text><path d="M31.87,153.73c-4.55,1.7-6.16,4.24-5.32,7.9a6.31,6.31,0,0,0,7.68,4.81,31.11,31.11,0,0,0,9.68-3.88c3-1.8,5.44-4.49,8.18-6.73,9-7.41,16.87-7.56,26.19-.56a6.47,6.47,0,0,0,.72.47,77.13,77.13,0,0,1,7.92-4.27c6.17-2.48,12-1.36,17.23,2.6,3.29,2.49,6.33,5.31,9.53,7.91a18.62,18.62,0,0,0,10.66,4.59c5.37.32,8.95-3.38,7.44-8.18-.6-1.92-2.67-3.38-3.93-4.88,4.54-1.85,9.55.58,11.14,6.06,2.88,10-4.26,21.08-14.79,22.58-12,1.72-23.32,0-33.36-7.38-1.9-1.39-3.94-2.59-5.93-3.85a9.67,9.67,0,0,0-11.1-.07c-2.32,1.47-4.69,2.88-6.93,4.47-10,7.09-21.2,8.56-32.93,6.75-9.82-1.51-16.44-11.36-14.71-21.18C20.33,154.68,25,151.9,31.87,153.73Z" style="fill:#0b5b2e"/><path d="M.65,102.16l7.79,1,6.53.72.24-.8c-2.65-1.28-5.26-2.68-8-3.82C0,96.19,0,96.23,0,88.51c.1-15.17.76-30.31,4.7-45a68.05,68.05,0,0,1,6-14.79c3.32-6.1,8.89-8.24,15.8-7.07,9,1.53,17.18,5.38,25.19,9.56,15.29,8,29.51,17.65,43.5,27.67a4.44,4.44,0,0,0,2.57,1,68.9,68.9,0,0,0-6.15-5.47,39,39,0,0,1-16-23.58c-1.53-6.25-4.13-12.25-6.32-18.58A117.38,117.38,0,0,1,94.47,2.13C97,1.45,99.6,1,102.19.5c10.47-1.9,19.22,1.78,27,8.45a11.1,11.1,0,0,1,4.17,9.91c-1,13.6-1.74,27.21-2.57,40.82,0,.62,0,1.24,0,1.76,2.11-1.95,4.14-4,6.37-5.79A3.49,3.49,0,0,1,140,55a16.19,16.19,0,0,1,5.14,2.82c1.09,1,2.36,2.83,2.11,4-.64,2.86,1.15,4.25,2.48,6.1,2.32,3.19,4.59,6.42,6.67,9.77,3.61,5.83,2.43,11.43-1,17a5.48,5.48,0,0,0-.33,3.45,16.17,16.17,0,0,0,1.38,3.37c1.13,2.66.46,4.93-1.95,6.33-1.64.95-1.82,2.22-1.7,3.72.78,9.48-3.3,16.48-10.9,21.79a13.46,13.46,0,0,1-6.3,2.43,11.46,11.46,0,0,1-7.23-1.18c-2.33-1.38-2.47-2.87-5.15-6.44a37.13,37.13,0,0,0-6-6.26l12.67-7.62-.27-.54-2.75,1c-3.45,1.34-5.17,2-6,2.5,0,0-4.94,2.7-6.49,2.69h0s-2.52.14-4.5.38a39.5,39.5,0,0,0-4.41.79,31.62,31.62,0,0,0-6,2.14s-4.59,2-15.63,6.62c-5.1,2.12-9.55,2.76-18.46,4,0,0-24.79,3.25-48.17-1.18-7.36-1.4-11.93-5.55-13.26-13.07C2.89,114.05,1.82,108.45.65,102.16ZM117.56,75.85C89.3,89,61,101.57,29.93,106.56,62,104.43,90.92,93.3,117.56,75.85ZM111,8.5c2.77,18.27,5.48,36.12,8.19,54l.4,0q-2-26.77-4-53.61Zm.83,51.23.48-.24L96.15,8.74,92.7,9.87C99.16,26.69,105.51,43.21,111.85,59.73ZM125.73,13.8v45c1.17-12.92,2.29-26.09,3.62-39.23C129.63,16.71,128.44,15.26,125.73,13.8Z" style="fill:#80c340"/></svg>